<svg version="1.1" id="Layer_1" xmlns="http://www.w3.org/2000/svg" xmlns:xlink="http://www.w3.org/1999/xlink" x="0px" y="0px"
	 width="100%" viewBox="0 0 2379 1602" enable-background="new 0 0 2379 1602" xml:space="preserve">
<path fill="#FFFFFF" opacity="1.000000" stroke="none" 
	d="
M1647.000000,1603.000000 
	C1098.000000,1603.000000 549.500000,1603.000000 1.000000,1603.000000 
	C1.000000,1069.000000 1.000000,535.000000 1.000000,1.000000 
	C794.000000,1.000000 1587.000000,1.000000 2380.000000,1.000000 
	C2380.000000,535.000000 2380.000000,1069.000000 2380.000000,1603.000000 
	C2135.833252,1603.000000 1891.666626,1603.000000 1647.000000,1603.000000 
M1609.310913,1195.125854 
	C1593.669800,1190.721069 1578.002319,1186.407471 1562.395752,1181.883423 
	C1549.447388,1178.130127 1545.231079,1172.281250 1545.048462,1158.710815 
	C1544.786133,1139.215820 1544.214722,1119.721802 1544.201416,1100.227173 
	C1544.082642,925.903992 1544.005005,751.580750 1544.054565,577.257568 
	C1544.063354,546.431030 1544.673462,515.604004 1545.097290,484.778473 
	C1545.279053,471.549072 1549.772583,465.819275 1562.488770,462.161804 
	C1569.817017,460.054047 1577.175537,458.052155 1584.509644,455.964417 
	C1602.656738,450.798676 1620.797485,445.610962 1639.482300,440.277496 
	C1638.310669,430.178955 1637.168457,420.334137 1635.981567,410.104156 
	C1633.620972,410.104156 1631.653687,410.059418 1629.688965,410.111053 
	C1606.038696,410.732544 1582.385986,411.987366 1558.739258,411.882294 
	C1492.256958,411.586761 1425.776367,410.782990 1359.297363,409.991608 
	C1354.621338,409.935944 1352.482910,411.209229 1350.661133,415.693268 
	C1289.162964,567.063293 1227.450806,718.346252 1165.873291,869.683960 
	C1149.841064,909.086060 1134.150635,948.627197 1118.156616,988.469788 
	C1114.545288,978.705322 1111.165771,968.997925 1107.390747,959.446777 
	C1058.090454,834.711487 1008.735107,709.997864 959.391602,585.279602 
	C936.890442,528.406921 914.356750,471.546997 891.950623,414.636871 
	C890.596130,411.196472 888.956543,409.713715 885.104614,410.003479 
	C877.301086,410.590454 869.463257,410.856232 861.635620,410.964874 
	C827.146851,411.443634 792.654724,412.262543 758.167297,412.121460 
	C713.847778,411.940155 669.531677,410.948639 625.213684,410.332489 
	C619.276611,410.249939 613.337402,410.321136 607.032654,410.321136 
	C607.580139,419.023804 608.340515,427.300140 608.518127,435.588928 
	C608.602966,439.548279 610.428955,440.904633 613.829956,441.876434 
	C636.944397,448.481415 660.014221,455.242615 683.104797,461.931305 
	C697.128357,465.993591 700.996277,470.303162 701.297913,484.808868 
	C701.990906,518.128601 702.605469,551.456909 702.635315,584.782288 
	C702.771667,736.940063 702.781372,889.098145 702.636230,1041.255981 
	C702.598755,1080.581787 701.659241,1119.906250 701.500610,1159.232788 
	C701.444214,1173.215698 695.699829,1178.540405 683.154114,1182.063232 
	C667.513611,1186.455200 651.837402,1190.719849 636.182983,1195.062500 
	C626.492798,1197.750610 616.814392,1200.481567 607.018127,1203.224854 
	C608.070740,1213.316162 609.066711,1222.863770 610.011047,1231.916504 
	C694.345093,1231.916504 778.180542,1231.916504 862.437622,1231.916504 
	C861.967651,1223.856323 861.269409,1215.732300 861.125854,1207.598755 
	C861.064941,1204.147095 859.924622,1202.810181 856.669006,1201.799316 
	C837.191833,1195.751831 817.794434,1189.447021 798.379761,1183.199219 
	C785.610291,1179.089844 781.328796,1173.424683 781.056519,1159.859863 
	C780.658508,1140.034058 780.159058,1120.205200 780.141968,1100.377319 
	C780.023438,963.218689 780.085327,826.059875 779.931763,688.901306 
	C779.892395,653.739685 779.287598,618.578796 778.945312,583.417542 
	C778.930725,581.920349 778.943420,580.422913 778.943420,578.925659 
	C786.443970,596.637024 792.750671,614.476807 799.782471,632.026062 
	C870.317444,808.061584 940.973877,984.048523 1011.589722,1160.051636 
	C1021.120117,1183.805176 1030.588989,1207.583496 1040.177002,1231.313721 
	C1040.941284,1233.205444 1040.912720,1235.894287 1044.601318,1235.507812 
	C1059.980957,1233.895508 1075.382935,1232.445068 1090.805054,1231.326538 
	C1094.515503,1231.057495 1095.825684,1229.402710 1097.064575,1226.355103 
	C1119.662354,1170.771484 1142.379883,1115.236572 1165.019897,1059.670166 
	C1232.438477,894.201782 1299.833374,728.723694 1367.251343,563.255005 
	C1367.867554,561.742371 1368.675293,560.307739 1369.917480,557.763611 
	C1369.917480,560.931030 1369.941772,562.762878 1369.913940,564.593994 
	C1369.317017,603.750183 1368.267822,642.905457 1368.194092,682.062622 
	C1367.943604,815.054443 1368.144043,948.047119 1367.912476,1081.039062 
	C1367.864258,1108.684692 1366.795776,1136.331177 1366.005737,1163.971802 
	C1365.711670,1174.258423 1360.053467,1180.265381 1350.192261,1183.160156 
	C1329.670044,1189.184326 1309.290039,1195.691895 1288.791016,1201.797852 
	C1285.691284,1202.721191 1284.386353,1203.828491 1284.840576,1207.228882 
	C1285.744019,1213.989258 1286.646606,1220.793091 1286.798218,1227.595703 
	C1286.900391,1232.181519 1288.603271,1232.995972 1292.779175,1232.904785 
	C1326.263184,1232.174805 1359.753418,1231.124023 1393.239258,1231.208740 
	C1471.392822,1231.406128 1549.545044,1232.183716 1627.697754,1232.721313 
	C1631.454590,1232.747192 1635.211670,1232.724609 1639.457031,1232.724609 
	C1638.775269,1223.790771 1638.054810,1215.515625 1637.557251,1207.227051 
	C1637.371460,1204.131470 1636.162598,1202.672974 1633.044556,1201.890503 
	C1625.331787,1199.955200 1617.731323,1197.572632 1609.310913,1195.125854 
M257.965912,1281.317749 
	C254.107697,1293.689819 250.765640,1306.252075 246.292801,1318.397827 
	C233.748383,1352.461060 212.757126,1380.664551 185.105255,1403.972656 
	C163.666885,1422.043335 139.314438,1435.371460 113.973824,1447.035889 
	C111.916039,1447.983154 109.918015,1449.060181 107.861046,1450.092651 
	C111.315086,1460.769531 114.735001,1470.845825 117.774887,1481.035400 
	C118.703468,1484.147949 120.290527,1484.481567 122.896584,1483.846069 
	C155.681839,1475.852417 188.764999,1468.902588 221.185303,1459.633789 
	C263.926880,1447.414429 304.572388,1429.984863 340.976685,1403.849976 
	C374.958832,1379.453857 400.065460,1347.991821 416.063690,1309.271240 
	C429.277374,1277.289917 436.722748,1243.801147 439.546295,1209.559937 
	C442.486908,1173.898804 444.532288,1138.056641 444.636932,1102.286987 
	C445.143433,929.123047 444.808655,755.956787 444.914398,582.791504 
	C444.934967,549.129822 445.559357,515.468201 445.972473,481.807343 
	C446.060699,474.621552 448.102234,468.190277 454.969116,464.617096 
	C458.034485,463.022034 461.441437,461.987640 464.791992,461.051819 
	C488.497650,454.430786 512.210510,447.833008 535.974121,441.424805 
	C539.133179,440.572968 540.406921,439.435608 539.994751,436.058685 
	C539.087280,428.623016 538.430359,421.153961 537.818787,413.686432 
	C537.590271,410.895935 536.331848,410.049591 533.630676,410.202240 
	C527.643188,410.540619 521.642883,410.728821 515.645569,410.805023 
	C465.153961,411.446899 414.660431,412.634644 364.170258,412.514008 
	C303.014343,412.367889 241.861130,411.104858 180.706680,410.330139 
	C178.464645,410.301727 176.221909,410.326508 173.554367,410.326508 
	C174.060379,419.361420 174.689041,427.655212 174.907181,435.959808 
	C174.991547,439.171021 176.021515,440.466583 179.185425,441.360840 
	C202.870071,448.054871 226.484863,454.996002 250.121582,461.859619 
	C264.269897,465.967987 268.064117,470.574249 268.315887,485.307312 
	C268.888153,518.798279 269.586700,552.292908 269.613159,585.786560 
	C269.743988,751.285156 269.775482,916.784119 269.594147,1082.282593 
	C269.553253,1119.604980 268.936707,1156.938843 267.813873,1194.244141 
	C266.942047,1223.209839 264.542786,1252.101807 257.965912,1281.317749 
M1836.212158,1067.500000 
	C1835.880127,1097.831055 1835.569580,1128.162231 1835.206787,1158.492920 
	C1835.034546,1172.897217 1831.001343,1178.229004 1817.203491,1182.108643 
	C1799.272583,1187.150146 1781.303955,1192.057861 1763.354858,1197.035156 
	C1755.894409,1199.104004 1748.442383,1201.203857 1740.849487,1203.327881 
	C1741.909424,1213.398193 1742.910156,1222.906494 1743.839966,1231.740723 
	C1865.372070,1231.740723 1986.085693,1231.740723 2107.067871,1231.740723 
	C2106.696533,1225.175781 2106.258545,1218.536499 2105.961182,1211.890869 
	C2105.577393,1203.306030 2105.620605,1203.322144 2097.454834,1200.988037 
	C2075.550049,1194.726562 2053.602051,1188.609619 2031.765747,1182.117310 
	C2017.927612,1178.003052 2013.396851,1171.624023 2013.199951,1157.430542 
	C2012.890015,1135.101074 2012.381836,1112.771606 2012.344849,1090.441528 
	C2012.192261,998.277954 2012.021484,906.113831 2012.166992,813.950378 
	C2012.340576,704.123413 2012.809937,594.296936 2013.210815,484.470459 
	C2013.262451,470.302216 2017.494873,464.913940 2030.930786,461.181915 
	C2043.429077,457.710449 2055.957764,454.348267 2068.461426,450.895630 
	C2081.260010,447.361542 2094.044678,443.776154 2107.147461,440.126221 
	C2106.138916,430.054749 2105.165039,420.326874 2104.156006,410.248566 
	C1982.977173,413.227783 1862.241943,413.243744 1740.977539,410.255402 
	C1741.419189,418.821136 1742.036499,426.915588 1742.170288,435.018005 
	C1742.237183,439.074219 1743.941650,440.718811 1747.707642,441.783447 
	C1771.232056,448.433441 1794.700562,455.282196 1818.169312,462.127869 
	C1830.560669,465.742401 1834.824585,471.268860 1835.164795,484.033081 
	C1835.489014,496.193359 1835.956421,508.355835 1835.964600,520.517578 
	C1836.087158,702.511719 1836.143921,884.505859 1836.212158,1067.500000 
M1647.346069,325.499939 
	C1647.346436,343.663177 1647.270020,361.826874 1647.374756,379.989502 
	C1647.441772,391.607147 1652.924438,401.291107 1662.884644,402.028931 
	C1680.884277,403.362335 1699.134521,403.391388 1717.123535,401.975830 
	C1727.258301,401.178375 1732.458008,391.549683 1732.492920,379.360352 
	C1732.566406,353.698792 1732.515991,328.036865 1732.515991,302.375092 
	C1732.515991,270.214569 1732.558228,238.053940 1732.497437,205.893509 
	C1732.466675,189.604309 1724.033325,181.219757 1707.877930,181.190414 
	C1696.380127,181.169525 1684.882324,181.183350 1673.384521,181.186783 
	C1655.429321,181.192169 1647.351562,189.198196 1647.348389,207.022324 
	C1647.341309,246.181534 1647.346313,285.340729 1647.346069,325.499939 
M1835.199341,372.293640 
	C1846.348022,381.018158 1857.378418,389.899445 1868.680054,398.420990 
	C1879.029053,406.224457 1891.353027,404.768005 1899.268066,394.676117 
	C1935.859741,348.021423 1972.359131,301.294159 2008.776855,254.503540 
	C2017.080811,243.834351 2015.490356,231.723022 2004.902954,223.218414 
	C1994.515991,214.874939 1984.000366,206.686600 1973.405273,198.608566 
	C1962.156616,190.032257 1950.163574,191.563354 1941.442017,202.707382 
	C1905.206543,249.006668 1869.014893,295.340271 1832.862183,341.704315 
	C1824.971191,351.824188 1825.723877,362.614655 1835.199341,372.293640 
M1396.135864,206.636520 
	C1389.576904,211.766647 1382.989868,216.861404 1376.464966,222.034439 
	C1363.889404,232.004395 1362.500244,243.500809 1372.403076,256.188507 
	C1407.958740,301.743317 1443.533569,347.283142 1479.128784,392.807037 
	C1488.948364,405.365692 1500.685181,406.740326 1513.324341,396.894653 
	C1522.915039,389.423645 1532.494385,381.937714 1542.041504,374.411316 
	C1554.313477,364.736969 1555.755493,352.882812 1546.165527,340.590332 
	C1524.961060,313.410431 1503.740356,286.243134 1482.519897,259.075897 
	C1467.757446,240.176636 1453.040771,221.241272 1438.193359,202.409180 
	C1429.781860,191.740234 1417.870605,190.209061 1406.944824,198.210953 
	C1403.453369,200.768066 1400.104492,203.520004 1396.135864,206.636520 
z"/>
<path fill="#F5BE00" opacity="1.000000" stroke="none" 
	d="
M1609.698242,1195.247803 
	C1617.731323,1197.572632 1625.331787,1199.955200 1633.044556,1201.890503 
	C1636.162598,1202.672974 1637.371460,1204.131470 1637.557251,1207.227051 
	C1638.054810,1215.515625 1638.775269,1223.790771 1639.457031,1232.724609 
	C1635.211670,1232.724609 1631.454590,1232.747192 1627.697754,1232.721313 
	C1549.545044,1232.183716 1471.392822,1231.406128 1393.239258,1231.208740 
	C1359.753418,1231.124023 1326.263184,1232.174805 1292.779175,1232.904785 
	C1288.603271,1232.995972 1286.900391,1232.181519 1286.798218,1227.595703 
	C1286.646606,1220.793091 1285.744019,1213.989258 1284.840576,1207.228882 
	C1284.386353,1203.828491 1285.691284,1202.721191 1288.791016,1201.797852 
	C1309.290039,1195.691895 1329.670044,1189.184326 1350.192261,1183.160156 
	C1360.053467,1180.265381 1365.711670,1174.258423 1366.005737,1163.971802 
	C1366.795776,1136.331177 1367.864258,1108.684692 1367.912476,1081.039062 
	C1368.144043,948.047119 1367.943604,815.054443 1368.194092,682.062622 
	C1368.267822,642.905457 1369.317017,603.750183 1369.913940,564.593994 
	C1369.941772,562.762878 1369.917480,560.931030 1369.917480,557.763611 
	C1368.675293,560.307739 1367.867554,561.742371 1367.251343,563.255005 
	C1299.833374,728.723694 1232.438477,894.201782 1165.019897,1059.670166 
	C1142.379883,1115.236572 1119.662354,1170.771484 1097.064575,1226.355103 
	C1095.825684,1229.402710 1094.515503,1231.057495 1090.805054,1231.326538 
	C1075.382935,1232.445068 1059.980957,1233.895508 1044.601318,1235.507812 
	C1040.912720,1235.894287 1040.941284,1233.205444 1040.177002,1231.313721 
	C1030.588989,1207.583496 1021.120117,1183.805176 1011.589722,1160.051636 
	C940.973877,984.048523 870.317444,808.061584 799.782471,632.026062 
	C792.750671,614.476807 786.443970,596.637024 778.943420,578.925659 
	C778.943420,580.422913 778.930725,581.920349 778.945312,583.417542 
	C779.287598,618.578796 779.892395,653.739685 779.931763,688.901306 
	C780.085327,826.059875 780.023438,963.218689 780.141968,1100.377319 
	C780.159058,1120.205200 780.658508,1140.034058 781.056519,1159.859863 
	C781.328796,1173.424683 785.610291,1179.089844 798.379761,1183.199219 
	C817.794434,1189.447021 837.191833,1195.751831 856.669006,1201.799316 
	C859.924622,1202.810181 861.064941,1204.147095 861.125854,1207.598755 
	C861.269409,1215.732300 861.967651,1223.856323 862.437622,1231.916504 
	C778.180542,1231.916504 694.345093,1231.916504 610.011047,1231.916504 
	C609.066711,1222.863770 608.070740,1213.316162 607.018127,1203.224854 
	C616.814392,1200.481567 626.492798,1197.750610 636.182983,1195.062500 
	C651.837402,1190.719849 667.513611,1186.455200 683.154114,1182.063232 
	C695.699829,1178.540405 701.444214,1173.215698 701.500610,1159.232788 
	C701.659241,1119.906250 702.598755,1080.581787 702.636230,1041.255981 
	C702.781372,889.098145 702.771667,736.940063 702.635315,584.782288 
	C702.605469,551.456909 701.990906,518.128601 701.297913,484.808868 
	C700.996277,470.303162 697.128357,465.993591 683.104797,461.931305 
	C660.014221,455.242615 636.944397,448.481415 613.829956,441.876434 
	C610.428955,440.904633 608.602966,439.548279 608.518127,435.588928 
	C608.340515,427.300140 607.580139,419.023804 607.032654,410.321136 
	C613.337402,410.321136 619.276611,410.249939 625.213684,410.332489 
	C669.531677,410.948639 713.847778,411.940155 758.167297,412.121460 
	C792.654724,412.262543 827.146851,411.443634 861.635620,410.964874 
	C869.463257,410.856232 877.301086,410.590454 885.104614,410.003479 
	C888.956543,409.713715 890.596130,411.196472 891.950623,414.636871 
	C914.356750,471.546997 936.890442,528.406921 959.391602,585.279602 
	C1008.735107,709.997864 1058.090454,834.711487 1107.390747,959.446777 
	C1111.165771,968.997925 1114.545288,978.705322 1118.156616,988.469788 
	C1134.150635,948.627197 1149.841064,909.086060 1165.873291,869.683960 
	C1227.450806,718.346252 1289.162964,567.063293 1350.661133,415.693268 
	C1352.482910,411.209229 1354.621338,409.935944 1359.297363,409.991608 
	C1425.776367,410.782990 1492.256958,411.586761 1558.739258,411.882294 
	C1582.385986,411.987366 1606.038696,410.732544 1629.688965,410.111053 
	C1631.653687,410.059418 1633.620972,410.104156 1635.981567,410.104156 
	C1637.168457,420.334137 1638.310669,430.178955 1639.482300,440.277496 
	C1620.797485,445.610962 1602.656738,450.798676 1584.509644,455.964417 
	C1577.175537,458.052155 1569.817017,460.054047 1562.488770,462.161804 
	C1549.772583,465.819275 1545.279053,471.549072 1545.097290,484.778473 
	C1544.673462,515.604004 1544.063354,546.431030 1544.054565,577.257568 
	C1544.005005,751.580750 1544.082642,925.903992 1544.201416,1100.227173 
	C1544.214722,1119.721802 1544.786133,1139.215820 1545.048462,1158.710815 
	C1545.231079,1172.281250 1549.447388,1178.130127 1562.395752,1181.883423 
	C1578.002319,1186.407471 1593.669800,1190.721069 1609.698242,1195.247803 
z"/>
<path fill="#F6BF00" opacity="1.000000" stroke="none" 
	d="
M258.017212,1280.899902 
	C264.542786,1252.101807 266.942047,1223.209839 267.813873,1194.244141 
	C268.936707,1156.938843 269.553253,1119.604980 269.594147,1082.282593 
	C269.775482,916.784119 269.743988,751.285156 269.613159,585.786560 
	C269.586700,552.292908 268.888153,518.798279 268.315887,485.307312 
	C268.064117,470.574249 264.269897,465.967987 250.121582,461.859619 
	C226.484863,454.996002 202.870071,448.054871 179.185425,441.360840 
	C176.021515,440.466583 174.991547,439.171021 174.907181,435.959808 
	C174.689041,427.655212 174.060379,419.361420 173.554367,410.326508 
	C176.221909,410.326508 178.464645,410.301727 180.706680,410.330139 
	C241.861130,411.104858 303.014343,412.367889 364.170258,412.514008 
	C414.660431,412.634644 465.153961,411.446899 515.645569,410.805023 
	C521.642883,410.728821 527.643188,410.540619 533.630676,410.202240 
	C536.331848,410.049591 537.590271,410.895935 537.818787,413.686432 
	C538.430359,421.153961 539.087280,428.623016 539.994751,436.058685 
	C540.406921,439.435608 539.133179,440.572968 535.974121,441.424805 
	C512.210510,447.833008 488.497650,454.430786 464.791992,461.051819 
	C461.441437,461.987640 458.034485,463.022034 454.969116,464.617096 
	C448.102234,468.190277 446.060699,474.621552 445.972473,481.807343 
	C445.559357,515.468201 444.934967,549.129822 444.914398,582.791504 
	C444.808655,755.956787 445.143433,929.123047 444.636932,1102.286987 
	C444.532288,1138.056641 442.486908,1173.898804 439.546295,1209.559937 
	C436.722748,1243.801147 429.277374,1277.289917 416.063690,1309.271240 
	C400.065460,1347.991821 374.958832,1379.453857 340.976685,1403.849976 
	C304.572388,1429.984863 263.926880,1447.414429 221.185303,1459.633789 
	C188.764999,1468.902588 155.681839,1475.852417 122.896584,1483.846069 
	C120.290527,1484.481567 118.703468,1484.147949 117.774887,1481.035400 
	C114.735001,1470.845825 111.315086,1460.769531 107.861046,1450.092651 
	C109.918015,1449.060181 111.916039,1447.983154 113.973824,1447.035889 
	C139.314438,1435.371460 163.666885,1422.043335 185.105255,1403.972656 
	C212.757126,1380.664551 233.748383,1352.461060 246.292801,1318.397827 
	C250.765640,1306.252075 254.107697,1293.689819 258.017212,1280.899902 
z"/>
<path fill="#F6BF01" opacity="1.000000" stroke="none" 
	d="
M1836.214111,1067.000000 
	C1836.143921,884.505859 1836.087158,702.511719 1835.964600,520.517578 
	C1835.956421,508.355835 1835.489014,496.193359 1835.164795,484.033081 
	C1834.824585,471.268860 1830.560669,465.742401 1818.169312,462.127869 
	C1794.700562,455.282196 1771.232056,448.433441 1747.707642,441.783447 
	C1743.941650,440.718811 1742.237183,439.074219 1742.170288,435.018005 
	C1742.036499,426.915588 1741.419189,418.821136 1740.977539,410.255402 
	C1862.241943,413.243744 1982.977173,413.227783 2104.156006,410.248566 
	C2105.165039,420.326874 2106.138916,430.054749 2107.147461,440.126221 
	C2094.044678,443.776154 2081.260010,447.361542 2068.461426,450.895630 
	C2055.957764,454.348267 2043.429077,457.710449 2030.930786,461.181915 
	C2017.494873,464.913940 2013.262451,470.302216 2013.210815,484.470459 
	C2012.809937,594.296936 2012.340576,704.123413 2012.166992,813.950378 
	C2012.021484,906.113831 2012.192261,998.277954 2012.344849,1090.441528 
	C2012.381836,1112.771606 2012.890015,1135.101074 2013.199951,1157.430542 
	C2013.396851,1171.624023 2017.927612,1178.003052 2031.765747,1182.117310 
	C2053.602051,1188.609619 2075.550049,1194.726562 2097.454834,1200.988037 
	C2105.620605,1203.322144 2105.577393,1203.306030 2105.961182,1211.890869 
	C2106.258545,1218.536499 2106.696533,1225.175781 2107.067871,1231.740723 
	C1986.085693,1231.740723 1865.372070,1231.740723 1743.839966,1231.740723 
	C1742.910156,1222.906494 1741.909424,1213.398193 1740.849487,1203.327881 
	C1748.442383,1201.203857 1755.894409,1199.104004 1763.354858,1197.035156 
	C1781.303955,1192.057861 1799.272583,1187.150146 1817.203491,1182.108643 
	C1831.001343,1178.229004 1835.034546,1172.897217 1835.206787,1158.492920 
	C1835.569580,1128.162231 1835.880127,1097.831055 1836.214111,1067.000000 
z"/>
<path fill="#F6BF01" opacity="1.000000" stroke="none" 
	d="
M1647.346191,324.999939 
	C1647.346313,285.340729 1647.341309,246.181534 1647.348389,207.022324 
	C1647.351562,189.198196 1655.429321,181.192169 1673.384521,181.186783 
	C1684.882324,181.183350 1696.380127,181.169525 1707.877930,181.190414 
	C1724.033325,181.219757 1732.466675,189.604309 1732.497437,205.893509 
	C1732.558228,238.053940 1732.515991,270.214569 1732.515991,302.375092 
	C1732.515991,328.036865 1732.566406,353.698792 1732.492920,379.360352 
	C1732.458008,391.549683 1727.258301,401.178375 1717.123535,401.975830 
	C1699.134521,403.391388 1680.884277,403.362335 1662.884644,402.028931 
	C1652.924438,401.291107 1647.441772,391.607147 1647.374756,379.989502 
	C1647.270020,361.826874 1647.346436,343.663177 1647.346191,324.999939 
z"/>
<path fill="#F6BF01" opacity="1.000000" stroke="none" 
	d="
M1834.933105,372.054901 
	C1825.723877,362.614655 1824.971191,351.824188 1832.862183,341.704315 
	C1869.014893,295.340271 1905.206543,249.006668 1941.442017,202.707382 
	C1950.163574,191.563354 1962.156616,190.032257 1973.405273,198.608566 
	C1984.000366,206.686600 1994.515991,214.874939 2004.902954,223.218414 
	C2015.490356,231.723022 2017.080811,243.834351 2008.776855,254.503540 
	C1972.359131,301.294159 1935.859741,348.021423 1899.268066,394.676117 
	C1891.353027,404.768005 1879.029053,406.224457 1868.680054,398.420990 
	C1857.378418,389.899445 1846.348022,381.018158 1834.933105,372.054901 
z"/>
<path fill="#F6BF01" opacity="1.000000" stroke="none" 
	d="
M1396.413086,206.409637 
	C1400.104492,203.520004 1403.453369,200.768066 1406.944824,198.210953 
	C1417.870605,190.209061 1429.781860,191.740234 1438.193359,202.409180 
	C1453.040771,221.241272 1467.757446,240.176636 1482.519897,259.075897 
	C1503.740356,286.243134 1524.961060,313.410431 1546.165527,340.590332 
	C1555.755493,352.882812 1554.313477,364.736969 1542.041504,374.411316 
	C1532.494385,381.937714 1522.915039,389.423645 1513.324341,396.894653 
	C1500.685181,406.740326 1488.948364,405.365692 1479.128784,392.807037 
	C1443.533569,347.283142 1407.958740,301.743317 1372.403076,256.188507 
	C1362.500244,243.500809 1363.889404,232.004395 1376.464966,222.034439 
	C1382.989868,216.861404 1389.576904,211.766647 1396.413086,206.409637 
z"/>
</svg>
